<mxfile host="app.diagrams.net" modified="2022-11-24T20:41:10.072Z" agent="5.0 (Windows NT 10.0; Win64; x64) AppleWebKit/537.36 (KHTML, like Gecko) Chrome/107.0.0.0 Safari/537.36" etag="vGoUkUmXAu_wVUmYgusM" version="20.6.0" type="github">
  <diagram name="Page-1" id="c4acf3e9-155e-7222-9cf6-157b1a14988f">
    <mxGraphModel dx="1422" dy="754" grid="1" gridSize="10" guides="1" tooltips="1" connect="1" arrows="1" fold="1" page="1" pageScale="1" pageWidth="850" pageHeight="1100" background="none" math="0" shadow="0">
      <root>
        <mxCell id="0" />
        <mxCell id="1" parent="0" />
        <mxCell id="2l-dpUpol_1fAEb8tBQ4-2" value="AddressBook" style="swimlane;fontStyle=1;align=center;verticalAlign=top;childLayout=stackLayout;horizontal=1;startSize=26;horizontalStack=0;resizeParent=1;resizeParentMax=0;resizeLast=0;collapsible=1;marginBottom=0;" vertex="1" parent="1">
          <mxGeometry x="80" y="150" width="160" height="210" as="geometry" />
        </mxCell>
        <mxCell id="2l-dpUpol_1fAEb8tBQ4-3" value="+ data" style="text;strokeColor=none;fillColor=none;align=left;verticalAlign=top;spacingLeft=4;spacingRight=4;overflow=hidden;rotatable=0;points=[[0,0.5],[1,0.5]];portConstraint=eastwest;" vertex="1" parent="2l-dpUpol_1fAEb8tBQ4-2">
          <mxGeometry y="26" width="160" height="24" as="geometry" />
        </mxCell>
        <mxCell id="2l-dpUpol_1fAEb8tBQ4-4" value="" style="line;strokeWidth=1;fillColor=none;align=left;verticalAlign=middle;spacingTop=-1;spacingLeft=3;spacingRight=3;rotatable=0;labelPosition=right;points=[];portConstraint=eastwest;strokeColor=inherit;" vertex="1" parent="2l-dpUpol_1fAEb8tBQ4-2">
          <mxGeometry y="50" width="160" height="8" as="geometry" />
        </mxCell>
        <mxCell id="2l-dpUpol_1fAEb8tBQ4-5" value="- __init__&#xa;+ add_record&#xa;+ get_record&#xa;+ remove_record&#xa;+ get_all_record&#xa;+ search &#xa;+ iterator&#xa;+ get_birthdays_in_range&#xa;+ save_contacts_to_file   &#xa;+ load_contacts_from_file" style="text;strokeColor=none;fillColor=none;align=left;verticalAlign=top;spacingLeft=4;spacingRight=4;overflow=hidden;rotatable=0;points=[[0,0.5],[1,0.5]];portConstraint=eastwest;" vertex="1" parent="2l-dpUpol_1fAEb8tBQ4-2">
          <mxGeometry y="58" width="160" height="152" as="geometry" />
        </mxCell>
        <mxCell id="2l-dpUpol_1fAEb8tBQ4-6" value="UserDict" style="swimlane;fontStyle=1;align=center;verticalAlign=top;childLayout=stackLayout;horizontal=1;startSize=26;horizontalStack=0;resizeParent=1;resizeParentMax=0;resizeLast=0;collapsible=1;marginBottom=0;" vertex="1" parent="1">
          <mxGeometry x="80" y="20" width="160" height="34" as="geometry" />
        </mxCell>
        <mxCell id="2l-dpUpol_1fAEb8tBQ4-8" value="" style="line;strokeWidth=1;fillColor=none;align=left;verticalAlign=middle;spacingTop=-1;spacingLeft=3;spacingRight=3;rotatable=0;labelPosition=right;points=[];portConstraint=eastwest;strokeColor=inherit;" vertex="1" parent="2l-dpUpol_1fAEb8tBQ4-6">
          <mxGeometry y="26" width="160" height="8" as="geometry" />
        </mxCell>
        <mxCell id="2l-dpUpol_1fAEb8tBQ4-13" value="" style="endArrow=block;endSize=16;endFill=0;html=1;rounded=0;exitX=0.5;exitY=0;exitDx=0;exitDy=0;entryX=0.5;entryY=1;entryDx=0;entryDy=0;" edge="1" parent="1" source="2l-dpUpol_1fAEb8tBQ4-2" target="2l-dpUpol_1fAEb8tBQ4-6">
          <mxGeometry width="160" relative="1" as="geometry">
            <mxPoint x="340" y="140" as="sourcePoint" />
            <mxPoint x="500" y="140" as="targetPoint" />
          </mxGeometry>
        </mxCell>
        <mxCell id="2l-dpUpol_1fAEb8tBQ4-14" value="Record" style="swimlane;fontStyle=1;align=center;verticalAlign=top;childLayout=stackLayout;horizontal=1;startSize=26;horizontalStack=0;resizeParent=1;resizeParentMax=0;resizeLast=0;collapsible=1;marginBottom=0;" vertex="1" parent="1">
          <mxGeometry x="340" y="100" width="160" height="260" as="geometry" />
        </mxCell>
        <mxCell id="2l-dpUpol_1fAEb8tBQ4-15" value="+ name&#xa;+ phones&#xa;+ birthday&#xa;+ email&#xa;+ address" style="text;strokeColor=none;fillColor=none;align=left;verticalAlign=top;spacingLeft=4;spacingRight=4;overflow=hidden;rotatable=0;points=[[0,0.5],[1,0.5]];portConstraint=eastwest;" vertex="1" parent="2l-dpUpol_1fAEb8tBQ4-14">
          <mxGeometry y="26" width="160" height="84" as="geometry" />
        </mxCell>
        <mxCell id="2l-dpUpol_1fAEb8tBQ4-16" value="" style="line;strokeWidth=1;fillColor=none;align=left;verticalAlign=middle;spacingTop=-1;spacingLeft=3;spacingRight=3;rotatable=0;labelPosition=right;points=[];portConstraint=eastwest;strokeColor=inherit;" vertex="1" parent="2l-dpUpol_1fAEb8tBQ4-14">
          <mxGeometry y="110" width="160" height="8" as="geometry" />
        </mxCell>
        <mxCell id="2l-dpUpol_1fAEb8tBQ4-17" value="- __init__&#xa;+ get_info&#xa;+ add_phone&#xa;+ delete_phone&#xa;+ change_phones&#xa;+ add_birthday&#xa;+ get_days_to_next_birthday&#xa;+ add_address&#xa;+ add_email&#xa;" style="text;strokeColor=none;fillColor=none;align=left;verticalAlign=top;spacingLeft=4;spacingRight=4;overflow=hidden;rotatable=0;points=[[0,0.5],[1,0.5]];portConstraint=eastwest;" vertex="1" parent="2l-dpUpol_1fAEb8tBQ4-14">
          <mxGeometry y="118" width="160" height="142" as="geometry" />
        </mxCell>
      </root>
    </mxGraphModel>
  </diagram>
</mxfile>
